<?xml version="1.0" encoding="UTF-8"?>
<svg version="1.1" xmlns="http://www.w3.org/2000/svg" width="256" height="256">
<path d="M0 0 C1.32 0.66 2.64 1.32 4 2 C4 63.05 4 124.1 4 187 C8.95 187 13.9 187 19 187 C18.98952637 185.31406738 18.97905273 183.62813477 18.96826172 181.89111328 C18.93604018 176.32714192 18.9130435 170.76318395 18.89637566 165.19914436 C18.88592858 161.82493006 18.87175275 158.45081648 18.84912109 155.07666016 C18.82495115 151.19951682 18.81353489 147.32251723 18.8046875 143.4453125 C18.79436493 142.23070343 18.78404236 141.01609436 18.77340698 139.76467896 C18.77325592 138.64366791 18.77310486 137.52265686 18.77294922 136.36767578 C18.768508 135.37728302 18.76406677 134.38689026 18.75949097 133.3664856 C19 131 19 131 21 129 C22.93945312 128.75708008 22.93945312 128.75708008 25.28125 128.76953125 C26.54388672 128.77243164 26.54388672 128.77243164 27.83203125 128.77539062 C28.71246094 128.78763672 29.59289062 128.79988281 30.5 128.8125 C31.82064453 128.8134668 31.82064453 128.8134668 33.16796875 128.81445312 C39.71919885 128.85959943 39.71919885 128.85959943 42 130 C42 148.81 42 167.62 42 187 C45.63 187 49.26 187 53 187 C52.99333817 186.01472321 52.98667633 185.02944641 52.97981262 184.01431274 C52.91908366 174.74380012 52.874067 165.47332768 52.84456348 156.20266151 C52.82888567 151.43613033 52.80760901 146.6697593 52.77368164 141.90332031 C52.74116334 137.3062418 52.72316294 132.70931764 52.71536827 128.11213303 C52.70981118 126.35537662 52.69895997 124.59862897 52.68280983 122.84193802 C52.66113522 120.38743872 52.65802883 117.93358299 52.65942383 115.47900391 C52.648638 114.74748611 52.63785217 114.01596832 52.6267395 113.26228333 C52.63923645 111.23965454 52.63923645 111.23965454 53 108 C56.07144133 105.95237245 56.69850959 105.7499305 60.16015625 105.76953125 C60.95357422 105.77146484 61.74699219 105.77339844 62.56445312 105.77539062 C63.38880859 105.78763672 64.21316406 105.79988281 65.0625 105.8125 C65.89072266 105.81314453 66.71894531 105.81378906 67.57226562 105.81445312 C73.71893064 105.85946532 73.71893064 105.85946532 76 107 C76 133.4 76 159.8 76 187 C79.63 187 83.26 187 87 187 C86.98952637 185.31406738 86.97905273 183.62813477 86.96826172 181.89111328 C86.93604018 176.32714192 86.9130435 170.76318395 86.89637566 165.19914436 C86.88592858 161.82493006 86.87175275 158.45081648 86.84912109 155.07666016 C86.82495115 151.19951682 86.81353489 147.32251723 86.8046875 143.4453125 C86.79436493 142.23070343 86.78404236 141.01609436 86.77340698 139.76467896 C86.77325592 138.64366791 86.77310486 137.52265686 86.77294922 136.36767578 C86.768508 135.37728302 86.76406677 134.38689026 86.75949097 133.3664856 C87 131 87 131 89 129 C90.93945312 128.75708008 90.93945312 128.75708008 93.28125 128.76953125 C94.12300781 128.77146484 94.96476562 128.77339844 95.83203125 128.77539062 C96.71246094 128.78763672 97.59289062 128.79988281 98.5 128.8125 C99.82064453 128.8134668 99.82064453 128.8134668 101.16796875 128.81445312 C107.71919885 128.85959943 107.71919885 128.85959943 110 130 C110 148.81 110 167.62 110 187 C113.3 187 116.6 187 120 187 C119.67 156.97 119.34 126.94 119 96 C110.00506582 105.45736886 110.00506582 105.45736886 110.00390625 115.54296875 C109.99935711 118.40438007 109.47866771 119.43695548 107.6875 121.625 C104.53491362 124.41100657 102.84187564 124.92057777 98.6875 125.3125 C94.27436983 124.93850592 92.33741926 123.87173285 89 121 C87.45376704 118.25895066 86.93692265 116.70173553 87.21875 113.56640625 C87.25358622 110.8846201 87.25358622 110.8846201 85.2421875 109.0859375 C82.8486779 107.35597512 80.45173798 105.6466293 78 104 C77.01 103.319375 76.02 102.63875 75 101.9375 C71.27423282 100.77319776 69.09551622 101.38375723 65.44140625 102.5546875 C63 103 63 103 59.640625 102.30078125 C54.97168838 101.91504292 52.67543657 103.49827121 49.1875 106.3125 C48.6092749 106.76455811 48.0310498 107.21661621 47.43530273 107.68237305 C43.97732692 110.59178335 42.21745889 112.68598187 41.5625 117.3125 C41.49289063 118.13105469 41.42328125 118.94960937 41.3515625 119.79296875 C40.94007445 122.37619927 40.31960152 123.33851327 38.4375 125.125 C34.09810935 127.49194035 30.84060683 127.97347997 26 127 C22.52939832 124.93240751 20.22274607 122.89055567 19 119 C18.52842304 114.75580734 18.73635377 112.51752778 20.6875 108.6875 C23.14935465 105.82642568 24.37093042 104.86406419 28 104 C31.0574077 103.80891202 33.37387001 103.7743773 36.265625 104.81640625 C40.4299834 105.09601317 42.71789376 102.66651827 45.75 100.125 C46.33910156 99.65191406 46.92820313 99.17882812 47.53515625 98.69140625 C50.35215657 96.44182802 50.35215657 96.44182802 53 94 C53.078983 92.58415665 53.13822689 91.16718836 53.1875 89.75 C53.59511473 85.99155246 53.96222857 85.04745641 56.4375 81.9375 C59.96247526 79.49385773 63.45741086 79.28086695 67.66015625 79.52734375 C70 80 70 80 73 81.9375 C75.01364889 85.02089986 75.14267536 85.81439041 75.4375 89.25 C76.18594733 93.43706853 78.11886538 95.39482153 81.47753906 97.94750977 C86.70673113 101.48118014 91.20830654 103.76309139 97.6875 103.3125 C105.80923448 101.3216846 110.1327843 95.29641444 115 89 C115.67675781 88.25621094 116.35351562 87.51242188 117.05078125 86.74609375 C120.1889106 83.21908129 120.1889106 83.21908129 120.9921875 78.72265625 C120.7511372 77.18147292 120.48239677 75.64431621 120.18359375 74.11328125 C120 72 120 72 121.6875 68.5625 C123.89167807 66.12003241 124.99435333 65.11964415 128 64 C129.6301692 64.13538693 131.25600515 64.32875454 132.875 64.5625 C138.76478425 64.69798895 142.16536705 62.44837132 146.6875 59 C147.62408447 58.31466187 147.62408447 58.31466187 148.57958984 57.61547852 C151.92740293 54.8959714 151.92740293 54.8959714 153.32763672 50.95849609 C153.28783392 48.96972866 153.14746388 46.98369216 153 45 C154.60923497 41.89647542 156.00347267 39.78298576 158.75 37.625 C162.22994329 36.65834909 165.463848 36.31448877 169 37 C172.02089981 38.7475743 174.41608883 40.83217766 176 44 C176.52999351 47.78566792 176.83021253 51.44856036 174.98828125 54.890625 C172.84136401 57.54687096 171.25877827 58.91374058 168 60 C164.31617231 60.13156527 161.50946415 60.16982138 158 59 C155.68125486 60.74570494 153.57591937 62.49198535 151.4375 64.4375 C145.23812424 70 145.23812424 70 143 70 C143.08701172 70.97839844 143.08701172 70.97839844 143.17578125 71.9765625 C143.59037238 80.00778502 143.59037238 80.00778502 140.6875 83.5625 C138 86 138 86 135 87 C133.00999705 86.87365061 131.01923248 86.74566491 129.03515625 86.546875 C125.87270823 87.25099011 124.7976285 89.44230039 123 92 C123.85549438 91.99214478 123.85549438 91.99214478 124.72827148 91.98413086 C127.29800323 91.96341779 129.86771747 91.9503581 132.4375 91.9375 C133.78424805 91.92493164 133.78424805 91.92493164 135.15820312 91.91210938 C136.01220703 91.90888672 136.86621094 91.90566406 137.74609375 91.90234375 C138.53685303 91.89710693 139.3276123 91.89187012 140.14233398 91.88647461 C142 92 142 92 143 93 C143.09525367 95.92194665 143.12552736 98.82020329 143.11352539 101.74243164 C143.11367142 102.6594133 143.11381744 103.57639496 143.1139679 104.52116394 C143.1132684 107.56751836 143.10547428 110.61381245 143.09765625 113.66015625 C143.0957922 115.76622993 143.09436824 117.87230403 143.09336853 119.9783783 C143.08954231 125.53342883 143.07971114 131.08845341 143.06866455 136.64349365 C143.05845267 142.3072474 143.05387139 147.97100533 143.04882812 153.63476562 C143.03808896 164.75652185 143.0210113 175.87825877 143 187 C146.3 187 149.6 187 153 187 C152.99777939 185.47379532 152.99555878 183.94759064 152.99327087 182.37513733 C152.97304316 168.02720599 152.95796969 153.67927967 152.94818783 139.33133793 C152.94302492 131.95404044 152.93598233 124.57675357 152.92456055 117.19946289 C152.91461354 110.7716782 152.90814653 104.3439012 152.90591151 97.91610903 C152.90460443 94.51060722 152.90151875 91.10512742 152.89426994 87.69963264 C152.88706394 83.90398959 152.88600887 80.10839288 152.88647461 76.31274414 C152.88287933 75.17554932 152.87928406 74.03835449 152.87557983 72.86669922 C152.8769545 71.83879776 152.87832916 70.8108963 152.87974548 69.75184631 C152.87836279 68.40372407 152.87836279 68.40372407 152.87695217 67.02836704 C153 65 153 65 154 64 C155.54955559 63.90100477 157.10353673 63.86920476 158.65625 63.8671875 C159.59597656 63.86589844 160.53570312 63.86460938 161.50390625 63.86328125 C162.49261719 63.86714844 163.48132813 63.87101562 164.5 63.875 C165.98306641 63.86919922 165.98306641 63.86919922 167.49609375 63.86328125 C168.90568359 63.86521484 168.90568359 63.86521484 170.34375 63.8671875 C171.21193359 63.86831543 172.08011719 63.86944336 172.97460938 63.87060547 C175 64 175 64 176 65 C176.09594225 66.58154848 176.1218796 68.16739125 176.12025452 69.75184631 C176.12231651 71.2936985 176.12231651 71.2936985 176.12442017 72.86669922 C176.12082489 74.00389404 176.11722961 75.14108887 176.11352539 76.31274414 C176.11367142 77.50282578 176.11381744 78.69290741 176.1139679 79.91905212 C176.11338894 83.19163274 176.10835981 86.46417107 176.10139394 89.73674321 C176.09515967 93.15338665 176.09455654 96.57003083 176.09336853 99.98667908 C176.09025543 106.46069267 176.08204233 112.93468946 176.07201904 119.40869564 C176.06085725 126.7773792 176.05534729 134.14606355 176.05032361 141.51475346 C176.03985969 156.67651192 176.02206018 171.83825366 176 187 C179.96 187 183.92 187 188 187 C188.33 188.65 188.66 190.3 189 192 C185.3848514 194.41009906 182.77302968 194.28009324 178.59814453 194.25396729 C177.45816356 194.25864726 177.45816356 194.25864726 176.29515266 194.26342177 C173.74096108 194.2714181 171.18700599 194.26507182 168.6328125 194.25878906 C166.80474711 194.2614982 164.97668282 194.2650587 163.14862061 194.26940918 C158.17765386 194.27854464 153.20676993 194.27498416 148.2358017 194.26865101 C143.04017408 194.263597 137.84455367 194.26828079 132.64892578 194.27142334 C123.92283858 194.27506473 115.1967852 194.27025934 106.47070312 194.26074219 C96.37381085 194.24985731 86.27699934 194.25338277 76.18010902 194.264395 C67.52019368 194.27346293 58.86030269 194.27475557 50.20038414 194.26951766 C45.0242213 194.26639524 39.84809645 194.26599606 34.67193604 194.27259064 C29.80628925 194.2783563 24.94074687 194.27438153 20.07511139 194.26280212 C18.28643212 194.26015136 16.49774412 194.2609277 14.7090683 194.26532745 C12.27321095 194.27076795 9.83769114 194.26396714 7.40185547 194.25396729 C6.68892397 194.25842873 5.97599247 194.26289017 5.24145699 194.26748681 C1.59595668 194.23832718 0.12426881 194.08284587 -3 192 C-3.30117729 189.4409022 -3.4043724 187.12200937 -3.38095093 184.55981445 C-3.3856309 183.78364179 -3.39031087 183.00746912 -3.39513266 182.20777607 C-3.40715078 179.59277343 -3.39759912 176.97828828 -3.38818359 174.36328125 C-3.39224628 172.49433078 -3.39758644 170.6253827 -3.40411377 168.75643921 C-3.41782928 163.66974919 -3.4124713 158.58324103 -3.40297651 153.4965477 C-3.39540179 148.18299607 -3.40241942 142.86946042 -3.40713501 137.5559082 C-3.41259896 128.6313191 -3.4053842 119.70680438 -3.39111328 110.78222656 C-3.37478556 100.45183889 -3.38007362 90.12162882 -3.3965925 79.79124546 C-3.41018917 70.93518073 -3.41213594 62.07916959 -3.40427649 53.2230978 C-3.39958995 47.92788721 -3.39900196 42.63276021 -3.40888596 37.33755493 C-3.41752694 32.36025265 -3.41158644 27.38318021 -3.39420319 22.40590286 C-3.39022295 20.57488004 -3.39139848 18.743838 -3.39799118 16.91282272 C-3.40613641 14.42167899 -3.39597111 11.93128118 -3.38095093 9.44018555 C-3.38764309 8.70809529 -3.39433526 7.97600504 -3.40123022 7.22173023 C-3.37752342 5.20780945 -3.37752342 5.20780945 -3 2 C-2.01 1.34 -1.02 0.68 0 0 Z M161.1875 45.1875 C159.7111635 47.01846177 159.7111635 47.01846177 160.3125 49.6875 C160.539375 50.450625 160.76625 51.21375 161 52 C163.35367713 52.6878236 163.35367713 52.6878236 166 53 C166.99 52.34 167.98 51.68 169 51 C169.41666667 48.5 169.41666667 48.5 169 46 C168.34 45.34 167.68 44.68 167 44 C163.19649626 43.63464916 163.19649626 43.63464916 161.1875 45.1875 Z M128.1875 72.25 C126.77427612 73.93458773 126.77427612 73.93458773 127.1875 76.0625 C127.93470336 78.18712526 127.93470336 78.18712526 130 80 C133.30683466 79.71016731 133.30683466 79.71016731 136 78 C136.2500773 75.54190002 136.2500773 75.54190002 136 73 C135.34 72.34 134.68 71.68 134 71 C130.18185196 70.62151136 130.18185196 70.62151136 128.1875 72.25 Z M160 71 C160 109.28 160 147.56 160 187 C162.97 187 165.94 187 169 187 C169 148.72 169 110.44 169 71 C166.03 71 163.06 71 160 71 Z M62 87 C59.77261893 89.68671748 59.77261893 89.68671748 60.125 92.0625 C61.2586993 94.57283417 62.48618938 95.02691202 65 96 C66.32 95.01 67.64 94.02 69 93 C68.62095792 89.70924004 68.62095792 89.70924004 67 87 C64.54207971 86.66656449 64.54207971 86.66656449 62 87 Z M127 99 C127 128.04 127 157.08 127 187 C129.97 187 132.94 187 136 187 C136 157.96 136 128.92 136 99 C133.03 99 130.06 99 127 99 Z M95.1875 110.25 C93.77427612 111.93458773 93.77427612 111.93458773 94.1875 114.0625 C94.93470336 116.18712526 94.93470336 116.18712526 97 118 C100.30683466 117.71016731 100.30683466 117.71016731 103 116 C103.2500773 113.54190002 103.2500773 113.54190002 103 111 C102.34 110.34 101.68 109.68 101 109 C97.18185196 108.62151136 97.18185196 108.62151136 95.1875 110.25 Z M27.125 112.125 C25.73933788 114.0140578 25.73933788 114.0140578 26.25 116.625 C26.77745645 118.9312407 26.77745645 118.9312407 28 120 C30.45809998 120.2500773 30.45809998 120.2500773 33 120 C33.66 119.34 34.32 118.68 35 118 C34.67801034 114.90073181 34.67801034 114.90073181 34 112 C30.45033356 110.86559731 30.45033356 110.86559731 27.125 112.125 Z M60 113 C60 137.42 60 161.84 60 187 C62.97 187 65.94 187 69 187 C69 162.58 69 138.16 69 113 C66.03 113 63.06 113 60 113 Z M26 136 C26 152.83 26 169.66 26 187 C28.97 187 31.94 187 35 187 C35 170.17 35 153.34 35 136 C32.03 136 29.06 136 26 136 Z M94 136 C94 152.83 94 169.66 94 187 C96.97 187 99.94 187 103 187 C103 170.17 103 153.34 103 136 C100.03 136 97.06 136 94 136 Z " fill="#1B9DFF" transform="translate(35,31)"/>
</svg>
